Coordinates
version=1
nRows=9
nColumns=24
inDegrees=yes

Units are S.I. units (second, meters, Newtons, ...)
Angles are in degrees.

endheader
time	pelvis_tilt	pelvis_list	pelvis_rotation	pelvis_tx	pelvis_ty	pelvis_tz	hip_flexion_r	hip_adduction_r	hip_rotation_r	knee_angle_r	ankle_angle_r	subtalar_angle_r	mtp_angle_r	hip_flexion_l	hip_adduction_l	hip_rotation_l	knee_angle_l	ankle_angle_l	subtalar_angle_l	mtp_angle_l	lumbar_extension	lumbar_bending	lumbar_rotation
      0.92033333	     -3.09107975	     -3.60156101	     -2.44197968	     -0.17085107	      0.97904984	      0.29920558	     -8.74422978	      7.20984209	     -4.88802424	    -10.72528610	     12.79261037	      0.97963918	      1.60315910	     25.33426903	     -1.60489135	     -3.91205052	     -2.77274120	     -1.60309377	     -2.59518889	     -0.90920650	     -2.59951238	      7.21132121	      9.11183010
      0.92450000	     -3.18395882	     -3.53450412	     -2.45766420	     -0.16502957	      0.97846178	      0.29884467	     -8.61217441	      7.06791016	     -4.84418778	    -11.49274599	     12.89782917	      0.99866052	      1.68719346	     25.34841048	     -1.45774018	     -3.65200987	     -2.92251745	     -1.90696037	     -2.94458791	     -0.60656958	     -2.47055510	      7.16850957	      9.13895086
      0.92866667	     -3.25872465	     -3.44164393	     -2.47187183	     -0.15914084	      0.97795897	      0.29852948	     -8.48547658	      6.90586289	     -4.76548660	    -12.29040502	     12.99390207	      0.89149478	      1.75309959	     25.34260806	     -1.29446396	     -3.46191755	     -3.13826893	     -2.21086591	     -3.14206514	     -0.39988822	     -2.33325612	      7.05554436	      9.12206619
      0.93283333	     -3.31275819	     -3.30587582	     -2.45948715	     -0.15319274	      0.97754503	      0.29817366	     -8.36586474	      6.69936843	     -4.71425730	    -13.10856957	     13.01064114	      0.75316535	      1.81180413	     25.32200691	     -1.07745174	     -3.27289519	     -3.42552698	     -2.54293391	     -3.39791615	     -0.23779008	     -2.21790892	      6.88917876	      9.10325762
      0.93700000	     -3.40994068	     -3.22918162	     -2.45519420	     -0.14732921	      0.97709371	      0.29779984	     -8.14329330	      6.55569805	     -4.64229581	    -14.02888252	     13.00604649	      0.63927014	      1.91785527	     25.35487945	     -0.92081437	     -2.97715003	     -3.76479739	     -2.88711810	     -3.83411203	      0.01529779	     -2.06657076	      6.81342190	      9.08294328
      0.94116667	     -3.47665106	     -3.10089700	     -2.44400125	     -0.14138568	      0.97675482	      0.29741374	     -7.93210560	      6.35407146	     -4.58675783	    -14.98735194	     12.95951254	      0.49495286	      2.04706125	     25.34455286	     -0.71107858	     -2.72475859	     -4.13020604	     -3.25362555	     -4.24509105	      0.27979495	     -1.94086511	      6.67095577	      9.05150742
      0.94533333	     -3.54003622	     -2.96864917	     -2.42284831	     -0.13542977	      0.97645289	      0.29700767	     -7.69159851	      6.14745191	     -4.53910887	    -16.00110404	     12.85496978	      0.33455703	      2.18633825	     25.33677689	     -0.49549688	     -2.47169171	     -4.54062128	     -3.60851001	     -4.65450607	      0.52025146	     -1.81330507	      6.51753396	      9.01016436
      0.94950000	     -3.57381539	     -2.81333679	     -2.37631843	     -0.12942278	      0.97622383	      0.29654600	     -7.44954978	      5.90394048	     -4.58361813	    -17.06567824	     12.66395197	      0.27850594	      4.77197966	     25.29947755	     -0.24652499	     -2.23120347	     -4.97736635	     -4.00678879	     -5.14532518	      4.22869200	     -1.71529066	      6.33206106	      8.94538907
      0.95366667	     -3.66082113	     -2.68020830	     -2.37045009	     -0.12346722	      0.97600240	      0.29615654	     -7.11208271	      5.69865688	     -4.47927269	    -18.19256984	     12.40208409	      0.01173319	      4.82391740	     25.31967049	     -0.04207476	     -2.01140031	     -5.44645660	     -4.36437955	     -5.56305620	      4.23023803	     -1.56045890	      6.18152893	      8.91084042
